<svg width="112" height="48" viewBox="0 0 112 48" fill="none" xmlns="http://www.w3.org/2000/svg">
<path d="M1.652 27V7.064H7.252V27H1.652ZM6.188 27V22.352H16.884V27H6.188ZM6.188 19.104V14.568H15.848V19.104H6.188ZM6.188 11.712V7.064H16.716V11.712H6.188ZM27.5148 27L24.8548 22.128L23.5668 21.428L18.0788 13.224H24.3508L27.0388 18.152L28.2988 18.796L33.7308 27H27.5148ZM17.7988 27L23.5108 18.712L26.5908 21.988L23.5668 27H17.7988ZM27.9628 21.428L24.8828 18.152L27.6828 13.224H33.4508L27.9628 21.428ZM41.592 27.336C40.08 27.336 38.7267 27.028 37.532 26.412C36.356 25.7773 35.4227 24.9093 34.732 23.808C34.06 22.7067 33.724 21.4653 33.724 20.084C33.724 18.7027 34.06 17.4707 34.732 16.388C35.404 15.3053 36.328 14.456 37.504 13.84C38.6987 13.2053 40.052 12.888 41.564 12.888C43.076 12.888 44.42 13.2053 45.596 13.84C46.772 14.456 47.696 15.3053 48.368 16.388C49.0587 17.4707 49.404 18.7027 49.404 20.084C49.404 21.4653 49.068 22.7067 48.396 23.808C47.724 24.9093 46.8 25.7773 45.624 26.412C44.448 27.028 43.104 27.336 41.592 27.336ZM41.564 22.52C42.0307 22.52 42.432 22.4267 42.768 22.24C43.1227 22.0347 43.3934 21.7547 43.58 21.4C43.7667 21.0267 43.86 20.5973 43.86 20.112C43.86 19.6267 43.7574 19.2067 43.552 18.852C43.3654 18.4787 43.104 18.1987 42.768 18.012C42.432 17.8067 42.0307 17.704 41.564 17.704C41.116 17.704 40.7147 17.8067 40.36 18.012C40.024 18.2173 39.7534 18.5067 39.548 18.88C39.3614 19.2347 39.268 19.6547 39.268 20.14C39.268 20.6067 39.3614 21.0267 39.548 21.4C39.7534 21.7547 40.024 22.0347 40.36 22.24C40.7147 22.4267 41.116 22.52 41.564 22.52Z" fill="#2CB67D"/>
<path d="M55.981 19.048V15.184H59.369C60.1343 15.184 60.713 14.9973 61.105 14.624C61.5156 14.2507 61.721 13.756 61.721 13.14C61.721 12.524 61.5156 12.0293 61.105 11.656C60.713 11.2827 60.1343 11.096 59.369 11.096H55.981V7.064H60.265C61.6463 7.064 62.8596 7.316 63.905 7.82C64.9503 8.324 65.7716 9.024 66.369 9.92C66.9663 10.816 67.265 11.8613 67.265 13.056C67.265 14.2507 66.957 15.296 66.341 16.192C65.7436 17.088 64.9036 17.788 63.821 18.292C62.7383 18.796 61.4596 19.048 59.985 19.048H55.981ZM51.445 27V7.064H57.045V27H51.445ZM62.197 27L56.765 18.488L61.805 17.396L68.553 27H62.197ZM76.4879 27.336C74.8826 27.336 73.4732 27.0373 72.2599 26.44C71.0466 25.824 70.0946 24.9747 69.4039 23.892C68.7319 22.7907 68.3959 21.5307 68.3959 20.112C68.3959 18.712 68.7226 17.4707 69.3759 16.388C70.0479 15.3053 70.9626 14.456 72.1199 13.84C73.2772 13.2053 74.5839 12.888 76.0399 12.888C77.4772 12.888 78.7466 13.1867 79.8479 13.784C80.9492 14.3627 81.8079 15.1747 82.4239 16.22C83.0586 17.2653 83.3759 18.46 83.3759 19.804C83.3759 20.084 83.3572 20.3827 83.3199 20.7C83.3012 20.9987 83.2452 21.3533 83.1519 21.764L70.7199 21.848V18.488L81.1079 18.404L78.5599 19.888C78.5599 19.1413 78.4666 18.5347 78.2799 18.068C78.1119 17.5827 77.8506 17.2187 77.4959 16.976C77.1412 16.7333 76.6932 16.612 76.1519 16.612C75.5919 16.612 75.1066 16.752 74.6959 17.032C74.2852 17.312 73.9679 17.7133 73.7439 18.236C73.5386 18.7587 73.4359 19.3933 73.4359 20.14C73.4359 20.9053 73.5479 21.5493 73.7719 22.072C74.0146 22.576 74.3599 22.9587 74.8079 23.22C75.2559 23.4813 75.8159 23.612 76.4879 23.612C77.1412 23.612 77.7106 23.5093 78.1959 23.304C78.6999 23.08 79.1572 22.7347 79.5679 22.268L82.3119 24.984C81.6212 25.768 80.7906 26.356 79.8199 26.748C78.8492 27.14 77.7386 27.336 76.4879 27.336ZM93.7792 27V19.272C93.7792 18.7307 93.6206 18.32 93.3032 18.04C93.0046 17.7413 92.6219 17.592 92.1552 17.592C91.8379 17.592 91.5486 17.6573 91.2872 17.788C91.0446 17.9187 90.8486 18.1147 90.6992 18.376C90.5686 18.6187 90.5032 18.9173 90.5032 19.272L88.3752 18.32C88.3752 17.2 88.6179 16.2387 89.1032 15.436C89.6072 14.6333 90.2886 14.0173 91.1472 13.588C92.0246 13.1587 93.0139 12.944 94.1152 12.944C95.1046 12.944 95.9819 13.168 96.7472 13.616C97.5312 14.0453 98.1472 14.6427 98.5952 15.408C99.0432 16.1547 99.2672 17.0227 99.2672 18.012V27H93.7792ZM85.0152 27V13.224H90.5032V27H85.0152ZM103.269 27V7.568H108.757V27H103.269ZM100.329 17.704V13.224H111.697V17.704H100.329Z" fill="#16161A"/>
<path d="M3.61364 43.1321C2.98011 43.1321 2.43466 42.9886 1.97727 42.7017C1.52273 42.4119 1.1733 42.0128 0.928977 41.5043C0.684659 40.9957 0.5625 40.4134 0.5625 39.7571C0.5625 39.0923 0.6875 38.5057 0.9375 37.9972C1.1875 37.4858 1.53977 37.0866 1.99432 36.7997C2.44886 36.5128 2.98438 36.3693 3.60085 36.3693C4.09801 36.3693 4.54119 36.4616 4.9304 36.6463C5.3196 36.8281 5.63352 37.0838 5.87216 37.4134C6.11364 37.7429 6.2571 38.1278 6.30256 38.5682H5.0625C4.99432 38.2614 4.83807 37.9972 4.59375 37.7756C4.35227 37.554 4.02841 37.4432 3.62216 37.4432C3.26705 37.4432 2.95597 37.5369 2.68892 37.7244C2.42472 37.9091 2.21875 38.1733 2.07102 38.517C1.9233 38.858 1.84943 39.2614 1.84943 39.7273C1.84943 40.2045 1.92188 40.6165 2.06676 40.9631C2.21165 41.3097 2.41619 41.5781 2.6804 41.7685C2.94744 41.9588 3.26136 42.054 3.62216 42.054C3.86364 42.054 4.08239 42.0099 4.27841 41.9219C4.47727 41.831 4.64347 41.7017 4.77699 41.5341C4.91335 41.3665 5.00852 41.1648 5.0625 40.929H6.30256C6.2571 41.3523 6.11932 41.7301 5.8892 42.0625C5.65909 42.3949 5.35085 42.6562 4.96449 42.8466C4.58097 43.0369 4.13068 43.1321 3.61364 43.1321ZM9.32996 43.1449C8.91518 43.1449 8.54018 43.0682 8.20496 42.9148C7.86973 42.7585 7.60411 42.5327 7.40808 42.2372C7.2149 41.9418 7.11831 41.5795 7.11831 41.1506C7.11831 40.7812 7.18933 40.4773 7.33138 40.2386C7.47342 40 7.66518 39.8111 7.90666 39.6719C8.14814 39.5327 8.41803 39.4276 8.71632 39.3565C9.01462 39.2855 9.31859 39.2315 9.62825 39.1946C10.0203 39.1491 10.3385 39.1122 10.5828 39.0838C10.8271 39.0526 11.0047 39.0028 11.1155 38.9347C11.2263 38.8665 11.2817 38.7557 11.2817 38.6023V38.5724C11.2817 38.2003 11.1765 37.9119 10.9663 37.7074C10.7589 37.5028 10.4493 37.4006 10.0373 37.4006C9.60837 37.4006 9.2703 37.4957 9.02314 37.6861C8.77882 37.8736 8.60979 38.0824 8.51604 38.3125L7.31859 38.0398C7.46064 37.642 7.66803 37.321 7.94075 37.0767C8.21632 36.8295 8.53308 36.6506 8.89104 36.5398C9.24899 36.4261 9.62541 36.3693 10.0203 36.3693C10.2817 36.3693 10.5587 36.4006 10.8513 36.4631C11.1467 36.5227 11.4223 36.6335 11.678 36.7955C11.9365 36.9574 12.1481 37.1889 12.3129 37.4901C12.4777 37.7884 12.5601 38.1761 12.5601 38.6534V43H11.3158V42.1051H11.2646C11.1822 42.2699 11.0587 42.4318 10.8939 42.5909C10.7291 42.75 10.5175 42.8821 10.2589 42.9872C10.0004 43.0923 9.69075 43.1449 9.32996 43.1449ZM9.60695 42.1222C9.95922 42.1222 10.2604 42.0526 10.5104 41.9134C10.7632 41.7741 10.955 41.5923 11.0856 41.3679C11.2192 41.1406 11.2859 40.8977 11.2859 40.6392V39.7955C11.2405 39.8409 11.1524 39.8835 11.0217 39.9233C10.8939 39.9602 10.7476 39.9929 10.5828 40.0213C10.418 40.0469 10.2575 40.071 10.1013 40.0938C9.94501 40.1136 9.81433 40.1307 9.70922 40.1449C9.46206 40.1761 9.23621 40.2287 9.03166 40.3026C8.82996 40.3764 8.66803 40.483 8.54587 40.6222C8.42655 40.7585 8.36689 40.9403 8.36689 41.1676C8.36689 41.483 8.48337 41.7216 8.71632 41.8835C8.94928 42.0426 9.24615 42.1222 9.60695 42.1222ZM14.0172 43V36.4545H15.2487V37.4943H15.3169C15.4362 37.142 15.6464 36.8651 15.9476 36.6634C16.2515 36.4588 16.5953 36.3565 16.9788 36.3565C17.0584 36.3565 17.1521 36.3594 17.2601 36.3651C17.3709 36.3707 17.4575 36.3778 17.52 36.3864V37.6051C17.4689 37.5909 17.378 37.5753 17.2473 37.5582C17.1166 37.5384 16.9859 37.5284 16.8552 37.5284C16.5541 37.5284 16.2856 37.5923 16.0498 37.7202C15.8169 37.8452 15.6322 38.0199 15.4959 38.2443C15.3595 38.4659 15.2913 38.7187 15.2913 39.0028V43H14.0172ZM21.3184 43V36.4545H22.5499V37.4943H22.6181C22.7374 37.142 22.9477 36.8651 23.2488 36.6634C23.5528 36.4588 23.8965 36.3565 24.2801 36.3565C24.3596 36.3565 24.4534 36.3594 24.5613 36.3651C24.6721 36.3707 24.7588 36.3778 24.8213 36.3864V37.6051C24.7701 37.5909 24.6792 37.5753 24.5485 37.5582C24.4178 37.5384 24.2872 37.5284 24.1565 37.5284C23.8553 37.5284 23.5869 37.5923 23.3511 37.7202C23.1181 37.8452 22.9335 38.0199 22.7971 38.2443C22.6607 38.4659 22.5926 38.7187 22.5926 39.0028V43H21.3184ZM28.2705 43.1321C27.6256 43.1321 27.0702 42.9943 26.6043 42.7188C26.1413 42.4403 25.7833 42.0497 25.5305 41.5469C25.2805 41.0412 25.1555 40.4489 25.1555 39.7699C25.1555 39.0994 25.2805 38.5085 25.5305 37.9972C25.7833 37.4858 26.1356 37.0866 26.5873 36.7997C27.0418 36.5128 27.5731 36.3693 28.181 36.3693C28.5504 36.3693 28.9083 36.4304 29.2549 36.5526C29.6015 36.6747 29.9126 36.8665 30.1881 37.1278C30.4637 37.3892 30.681 37.7287 30.8401 38.1463C30.9992 38.5611 31.0788 39.0653 31.0788 39.6591V40.1108H25.8756V39.1562H29.8302C29.8302 38.821 29.762 38.5241 29.6256 38.2656C29.4893 38.0043 29.2975 37.7983 29.0504 37.6477C28.806 37.4972 28.5191 37.4219 28.1896 37.4219C27.8316 37.4219 27.5191 37.5099 27.2521 37.6861C26.9879 37.8594 26.7833 38.0866 26.6384 38.3679C26.4964 38.6463 26.4254 38.9489 26.4254 39.2756V40.0213C26.4254 40.4588 26.5021 40.831 26.6555 41.1378C26.8117 41.4446 27.029 41.679 27.3075 41.8409C27.5859 42 27.9111 42.0795 28.2833 42.0795C28.5248 42.0795 28.745 42.0455 28.9438 41.9773C29.1427 41.9062 29.3146 41.8011 29.4594 41.6619C29.6043 41.5227 29.7151 41.3509 29.7918 41.1463L30.9978 41.3636C30.9012 41.7187 30.7279 42.0298 30.4779 42.2969C30.2308 42.5611 29.9197 42.767 29.5447 42.9148C29.1725 43.0597 28.7478 43.1321 28.2705 43.1321ZM33.5266 39.1136V43H32.2525V36.4545H33.4755V37.5199H33.5564C33.707 37.1733 33.9428 36.8949 34.2638 36.6847C34.5877 36.4744 34.9954 36.3693 35.4868 36.3693C35.9329 36.3693 36.3235 36.4631 36.6587 36.6506C36.9939 36.8352 37.2539 37.1108 37.4386 37.4773C37.6232 37.8437 37.7155 38.2969 37.7155 38.8366V43H36.4414V38.9901C36.4414 38.5156 36.3178 38.1449 36.0707 37.8778C35.8235 37.608 35.484 37.473 35.0522 37.473C34.7567 37.473 34.4939 37.5369 34.2638 37.6648C34.0366 37.7926 33.8562 37.9801 33.7226 38.2273C33.592 38.4716 33.5266 38.767 33.5266 39.1136ZM42.2397 36.4545V37.4773H38.6645V36.4545H42.2397ZM39.6233 34.8864H40.8974V41.0781C40.8974 41.3253 40.9343 41.5114 41.0082 41.6364C41.0821 41.7585 41.1772 41.8423 41.2937 41.8878C41.413 41.9304 41.5423 41.9517 41.6815 41.9517C41.7838 41.9517 41.8733 41.9446 41.95 41.9304C42.0267 41.9162 42.0863 41.9048 42.1289 41.8963L42.3591 42.9489C42.2852 42.9773 42.1801 43.0057 42.0437 43.0341C41.9074 43.0653 41.7369 43.0824 41.5324 43.0852C41.1971 43.0909 40.8846 43.0312 40.5949 42.9062C40.3051 42.7812 40.0707 42.5881 39.8917 42.3267C39.7128 42.0653 39.6233 41.7372 39.6233 41.3423V34.8864ZM45.314 43.1449C44.8992 43.1449 44.5242 43.0682 44.189 42.9148C43.8538 42.7585 43.5882 42.5327 43.3921 42.2372C43.199 41.9418 43.1024 41.5795 43.1024 41.1506C43.1024 40.7812 43.1734 40.4773 43.3154 40.2386C43.4575 40 43.6492 39.8111 43.8907 39.6719C44.1322 39.5327 44.4021 39.4276 44.7004 39.3565C44.9987 39.2855 45.3027 39.2315 45.6123 39.1946C46.0044 39.1491 46.3225 39.1122 46.5669 39.0838C46.8112 39.0526 46.9887 39.0028 47.0995 38.9347C47.2103 38.8665 47.2657 38.7557 47.2657 38.6023V38.5724C47.2657 38.2003 47.1606 37.9119 46.9504 37.7074C46.743 37.5028 46.4333 37.4006 46.0214 37.4006C45.5924 37.4006 45.2544 37.4957 45.0072 37.6861C44.7629 37.8736 44.5939 38.0824 44.5001 38.3125L43.3027 38.0398C43.4447 37.642 43.6521 37.321 43.9248 37.0767C44.2004 36.8295 44.5171 36.6506 44.8751 36.5398C45.2331 36.4261 45.6095 36.3693 46.0044 36.3693C46.2657 36.3693 46.5427 36.4006 46.8353 36.4631C47.1308 36.5227 47.4064 36.6335 47.662 36.7955C47.9206 36.9574 48.1322 37.1889 48.297 37.4901C48.4617 37.7884 48.5441 38.1761 48.5441 38.6534V43H47.2998V42.1051H47.2487C47.1663 42.2699 47.0427 42.4318 46.8779 42.5909C46.7132 42.75 46.5015 42.8821 46.243 42.9872C45.9845 43.0923 45.6748 43.1449 45.314 43.1449ZM45.591 42.1222C45.9433 42.1222 46.2444 42.0526 46.4944 41.9134C46.7473 41.7741 46.939 41.5923 47.0697 41.3679C47.2032 41.1406 47.27 40.8977 47.27 40.6392V39.7955C47.2245 39.8409 47.1365 39.8835 47.0058 39.9233C46.8779 39.9602 46.7316 39.9929 46.5669 40.0213C46.4021 40.0469 46.2416 40.071 46.0853 40.0938C45.9291 40.1136 45.7984 40.1307 45.6933 40.1449C45.4461 40.1761 45.2203 40.2287 45.0157 40.3026C44.814 40.3764 44.6521 40.483 44.5299 40.6222C44.4106 40.7585 44.351 40.9403 44.351 41.1676C44.351 41.483 44.4674 41.7216 44.7004 41.8835C44.9333 42.0426 45.2302 42.1222 45.591 42.1222ZM51.2754 34.2727V43H50.0012V34.2727H51.2754ZM60.5901 38.0526L59.4353 38.2571C59.387 38.1094 59.3103 37.9687 59.2052 37.8352C59.1029 37.7017 58.9637 37.5923 58.7876 37.5071C58.6114 37.4219 58.3913 37.3793 58.127 37.3793C57.7663 37.3793 57.4651 37.4602 57.2236 37.6222C56.9822 37.7812 56.8614 37.9872 56.8614 38.2401C56.8614 38.4588 56.9424 38.6349 57.1043 38.7685C57.2663 38.902 57.5276 39.0114 57.8884 39.0966L58.9282 39.3352C59.5305 39.4744 59.9793 39.6889 60.2748 39.9787C60.5702 40.2685 60.718 40.6449 60.718 41.108C60.718 41.5 60.6043 41.8494 60.377 42.1562C60.1526 42.4602 59.8387 42.6989 59.4353 42.8722C59.0347 43.0455 58.5702 43.1321 58.0418 43.1321C57.3089 43.1321 56.7109 42.9759 56.2478 42.6634C55.7847 42.348 55.5006 41.9006 55.3955 41.321L56.627 41.1335C56.7038 41.4545 56.8614 41.6974 57.1001 41.8622C57.3387 42.0241 57.6498 42.1051 58.0333 42.1051C58.4509 42.1051 58.7847 42.0185 59.0347 41.8452C59.2847 41.669 59.4097 41.4545 59.4097 41.2017C59.4097 40.9972 59.333 40.8253 59.1796 40.6861C59.029 40.5469 58.7975 40.4418 58.485 40.3707L57.377 40.1278C56.7663 39.9886 56.3145 39.767 56.0219 39.4631C55.7322 39.1591 55.5873 38.7741 55.5873 38.3082C55.5873 37.9219 55.6952 37.5838 55.9111 37.294C56.127 37.0043 56.4253 36.7784 56.806 36.6165C57.1867 36.4517 57.6228 36.3693 58.1143 36.3693C58.8216 36.3693 59.3785 36.5227 59.7847 36.8295C60.191 37.1335 60.4594 37.5412 60.5901 38.0526ZM64.6999 43.1321C64.055 43.1321 63.4996 42.9943 63.0337 42.7188C62.5706 42.4403 62.2127 42.0497 61.9598 41.5469C61.7098 41.0412 61.5848 40.4489 61.5848 39.7699C61.5848 39.0994 61.7098 38.5085 61.9598 37.9972C62.2127 37.4858 62.565 37.0866 63.0167 36.7997C63.4712 36.5128 64.0025 36.3693 64.6104 36.3693C64.9797 36.3693 65.3377 36.4304 65.6843 36.5526C66.0309 36.6747 66.3419 36.8665 66.6175 37.1278C66.8931 37.3892 67.1104 37.7287 67.2695 38.1463C67.4286 38.5611 67.5081 39.0653 67.5081 39.6591V40.1108H62.305V39.1562H66.2596C66.2596 38.821 66.1914 38.5241 66.055 38.2656C65.9186 38.0043 65.7269 37.7983 65.4797 37.6477C65.2354 37.4972 64.9485 37.4219 64.6189 37.4219C64.261 37.4219 63.9485 37.5099 63.6814 37.6861C63.4172 37.8594 63.2127 38.0866 63.0678 38.3679C62.9258 38.6463 62.8547 38.9489 62.8547 39.2756V40.0213C62.8547 40.4588 62.9314 40.831 63.0848 41.1378C63.2411 41.4446 63.4584 41.679 63.7368 41.8409C64.0152 42 64.3405 42.0795 64.7127 42.0795C64.9542 42.0795 65.1743 42.0455 65.3732 41.9773C65.5721 41.9062 65.7439 41.8011 65.8888 41.6619C66.0337 41.5227 66.1445 41.3509 66.2212 41.1463L67.4272 41.3636C67.3306 41.7187 67.1573 42.0298 66.9073 42.2969C66.6601 42.5611 66.349 42.767 65.974 42.9148C65.6019 43.0597 65.1772 43.1321 64.6999 43.1321ZM68.6818 43V36.4545H69.9134V37.4943H69.9816C70.1009 37.142 70.3111 36.8651 70.6122 36.6634C70.9162 36.4588 71.26 36.3565 71.6435 36.3565C71.723 36.3565 71.8168 36.3594 71.9247 36.3651C72.0355 36.3707 72.1222 36.3778 72.1847 36.3864V37.6051C72.1335 37.5909 72.0426 37.5753 71.912 37.5582C71.7813 37.5384 71.6506 37.5284 71.5199 37.5284C71.2188 37.5284 70.9503 37.5923 70.7145 37.7202C70.4816 37.8452 70.2969 38.0199 70.1605 38.2443C70.0242 38.4659 69.956 38.7187 69.956 39.0028V43H68.6818ZM78.846 36.4545L76.4724 43H75.1087L72.7309 36.4545H74.0988L75.7565 41.4915H75.8247L77.4781 36.4545H78.846ZM79.8034 43V36.4545H81.0776V43H79.8034ZM80.4469 35.4446C80.2253 35.4446 80.0349 35.3707 79.8759 35.223C79.7196 35.0724 79.6415 34.8935 79.6415 34.6861C79.6415 34.4759 79.7196 34.2969 79.8759 34.1491C80.0349 33.9986 80.2253 33.9233 80.4469 33.9233C80.6685 33.9233 80.8574 33.9986 81.0136 34.1491C81.1727 34.2969 81.2523 34.4759 81.2523 34.6861C81.2523 34.8935 81.1727 35.0724 81.0136 35.223C80.8574 35.3707 80.6685 35.4446 80.4469 35.4446ZM85.3088 43.1321C84.6753 43.1321 84.1298 42.9886 83.6724 42.7017C83.2179 42.4119 82.8685 42.0128 82.6241 41.5043C82.3798 40.9957 82.2577 40.4134 82.2577 39.7571C82.2577 39.0923 82.3827 38.5057 82.6327 37.9972C82.8827 37.4858 83.2349 37.0866 83.6895 36.7997C84.144 36.5128 84.6795 36.3693 85.296 36.3693C85.7932 36.3693 86.2364 36.4616 86.6256 36.6463C87.0148 36.8281 87.3287 37.0838 87.5673 37.4134C87.8088 37.7429 87.9523 38.1278 87.9977 38.5682H86.7577C86.6895 38.2614 86.5332 37.9972 86.2889 37.7756C86.0474 37.554 85.7236 37.4432 85.3173 37.4432C84.9622 37.4432 84.6511 37.5369 84.3841 37.7244C84.1199 37.9091 83.9139 38.1733 83.7662 38.517C83.6185 38.858 83.5446 39.2614 83.5446 39.7273C83.5446 40.2045 83.617 40.6165 83.7619 40.9631C83.9068 41.3097 84.1114 41.5781 84.3756 41.7685C84.6426 41.9588 84.9565 42.054 85.3173 42.054C85.5588 42.054 85.7775 42.0099 85.9736 41.9219C86.1724 41.831 86.3386 41.7017 86.4721 41.5341C86.6085 41.3665 86.7037 41.1648 86.7577 40.929H87.9977C87.9523 41.3523 87.8145 41.7301 87.5844 42.0625C87.3543 42.3949 87.046 42.6562 86.6596 42.8466C86.2761 43.0369 85.8258 43.1321 85.3088 43.1321ZM91.9413 43.1321C91.2964 43.1321 90.741 42.9943 90.2751 42.7188C89.812 42.4403 89.4541 42.0497 89.2012 41.5469C88.9512 41.0412 88.8262 40.4489 88.8262 39.7699C88.8262 39.0994 88.9512 38.5085 89.2012 37.9972C89.4541 37.4858 89.8064 37.0866 90.2581 36.7997C90.7126 36.5128 91.2439 36.3693 91.8518 36.3693C92.2211 36.3693 92.5791 36.4304 92.9257 36.5526C93.2723 36.6747 93.5834 36.8665 93.8589 37.1278C94.1345 37.3892 94.3518 37.7287 94.5109 38.1463C94.67 38.5611 94.7495 39.0653 94.7495 39.6591V40.1108H89.5464V39.1562H93.501C93.501 38.821 93.4328 38.5241 93.2964 38.2656C93.1601 38.0043 92.9683 37.7983 92.7211 37.6477C92.4768 37.4972 92.1899 37.4219 91.8603 37.4219C91.5024 37.4219 91.1899 37.5099 90.9228 37.6861C90.6586 37.8594 90.4541 38.0866 90.3092 38.3679C90.1672 38.6463 90.0961 38.9489 90.0961 39.2756V40.0213C90.0961 40.4588 90.1728 40.831 90.3262 41.1378C90.4825 41.4446 90.6998 41.679 90.9782 41.8409C91.2566 42 91.5819 42.0795 91.9541 42.0795C92.1956 42.0795 92.4157 42.0455 92.6146 41.9773C92.8135 41.9062 92.9853 41.8011 93.1302 41.6619C93.2751 41.5227 93.3859 41.3509 93.4626 41.1463L94.6686 41.3636C94.572 41.7187 94.3987 42.0298 94.1487 42.2969C93.9015 42.5611 93.5905 42.767 93.2155 42.9148C92.8433 43.0597 92.4186 43.1321 91.9413 43.1321Z" fill="#5E5E67"/>
</svg>
